<svg width="50" height="56" viewBox="0 0 50 56" fill="none" xmlns="http://www.w3.org/2000/svg">
<path d="M21.25 1.74468L2.5 15.8072C0.937501 16.9947 0 18.8384 0 20.8072V48.9322C0 52.3697 2.8125 55.1822 6.25 55.1822H43.75C47.1875 55.1822 50 52.3697 50 48.9322V20.8072C50 18.8384 49.0625 16.9947 47.5 15.8072L28.75 1.74468C27.6661 0.938075 26.3511 0.502441 25 0.502441C23.6489 0.502441 22.3339 0.938075 21.25 1.74468ZM26.5625 28.6197C26.5625 31.2134 24.4687 33.3072 21.875 33.3072V44.2447C21.875 45.1197 21.1875 45.8072 20.3125 45.8072C19.4375 45.8072 18.75 45.1197 18.75 44.2447V33.3072C16.1563 33.3072 14.0625 31.2134 14.0625 28.6197V20.8072C14.0625 19.9322 14.75 19.2447 15.625 19.2447C16.5 19.2447 17.1875 19.9322 17.1875 20.8072V28.6197H18.75V20.8072C18.75 19.9322 19.4375 19.2447 20.3125 19.2447C21.1875 19.2447 21.875 19.9322 21.875 20.8072V28.6197H23.4375V20.8072C23.4375 19.9322 24.125 19.2447 25 19.2447C25.875 19.2447 26.5625 19.9322 26.5625 20.8072V28.6197ZM32.8125 45.8072C31.9375 45.8072 31.25 45.1197 31.25 44.2447V34.8697H29.6875C28.8125 34.8697 28.125 34.1822 28.125 33.3072V25.4947C28.125 22.7447 29.9062 20.4009 32.375 19.5884C33.3437 19.2447 34.375 20.0259 34.375 21.0884V44.2447C34.375 45.1197 33.6875 45.8072 32.8125 45.8072Z" fill="#FB416B"/>
</svg>
